<svg width="36" height="36" viewBox="0 0 36 36" fill="none" xmlns="http://www.w3.org/2000/svg">
<path d="M15.6875 14.5391C14.4062 15.3438 13.6641 16.7891 13.7422 18.2969C13.8281 19.8125 14.7344 21.1562 16.0938 21.8203C17.4609 22.4766 19.0781 22.3359 20.3125 21.4609C21.5938 20.6562 22.3359 19.2109 22.2578 17.7031C22.1719 16.1875 21.2656 14.8438 19.9062 14.1797C18.5391 13.5234 16.9219 13.6641 15.6875 14.5391ZM26.8047 9.19531C26.3984 8.78906 25.9062 8.46875 25.3672 8.25781C23.9531 7.70313 20.8672 7.72656 18.875 7.75C18.5547 7.75 18.2578 7.75781 18 7.75781C17.7422 7.75781 17.4375 7.75781 17.1094 7.75C15.1172 7.72656 12.0469 7.69531 10.6328 8.25781C10.0938 8.46875 9.60938 8.78906 9.19531 9.19531C8.78125 9.60156 8.46875 10.0938 8.25781 10.6328C7.70313 12.0469 7.73438 15.1406 7.75 17.1328C7.75 17.4531 7.75781 17.75 7.75781 18C7.75781 18.25 7.75781 18.5469 7.75 18.8672C7.73438 20.8594 7.70313 23.9531 8.25781 25.3672C8.46875 25.9062 8.78906 26.3906 9.19531 26.8047C9.60156 27.2188 10.0938 27.5312 10.6328 27.7422C12.0469 28.2969 15.1328 28.2734 17.125 28.25C17.4453 28.25 17.7422 28.2422 18 28.2422C18.2578 28.2422 18.5625 28.2422 18.8906 28.25C20.8828 28.2734 23.9531 28.3047 25.3672 27.7422C25.9062 27.5312 26.3906 27.2109 26.8047 26.8047C27.2188 26.3984 27.5312 25.9062 27.7422 25.3672C28.3047 23.9609 28.2734 20.8828 28.25 18.8828C28.25 18.5547 28.2422 18.25 28.2422 17.9922C28.2422 17.7344 28.2422 17.4375 28.25 17.1016C28.2734 15.1094 28.3047 12.0312 27.7422 10.6172C27.5312 10.0781 27.2109 9.59375 26.8047 9.17969V9.19531ZM21.5625 12.6719C22.9766 13.6172 23.9531 15.0859 24.2891 16.75C24.625 18.4141 24.2734 20.1484 23.3281 21.5625C22.8594 22.2656 22.2578 22.8594 21.5625 23.3281C20.8672 23.7969 20.0781 24.1172 19.25 24.2812C17.5859 24.6094 15.8516 24.2656 14.4375 23.3203C13.0234 22.375 12.0469 20.9062 11.7109 19.2422C11.375 17.5781 11.7266 15.8437 12.6641 14.4297C13.6016 13.0156 15.0781 12.0391 16.7422 11.7031C18.4062 11.3672 20.1406 11.7188 21.5547 12.6562H21.5625V12.6719ZM23.8438 12.5703C23.6016 12.4062 23.4062 12.1719 23.2891 11.8984C23.1719 11.625 23.1484 11.3281 23.2031 11.0312C23.2578 10.7344 23.4062 10.4766 23.6094 10.2656C23.8125 10.0547 24.0859 9.91406 24.375 9.85938C24.6641 9.80469 24.9688 9.82812 25.2422 9.94531C25.5156 10.0625 25.75 10.25 25.9141 10.4922C26.0781 10.7344 26.1641 11.0234 26.1641 11.3203C26.1641 11.5156 26.125 11.7109 26.0547 11.8906C25.9844 12.0703 25.8672 12.2344 25.7344 12.375C25.6016 12.5156 25.4297 12.625 25.25 12.7031C25.0703 12.7812 24.875 12.8203 24.6797 12.8203C24.3828 12.8203 24.0938 12.7344 23.8516 12.5703H23.8438ZM35.5 5.5C35.5 2.74219 33.2578 0.5 30.5 0.5H5.5C2.74219 0.5 0.5 2.74219 0.5 5.5V30.5C0.5 33.2578 2.74219 35.5 5.5 35.5H30.5C33.2578 35.5 35.5 33.2578 35.5 30.5V5.5ZM28.3906 28.3906C26.9297 29.8516 25.1562 30.3125 23.1562 30.4141C21.0938 30.5312 14.9062 30.5312 12.8438 30.4141C10.8438 30.3125 9.07031 29.8516 7.60938 28.3906C6.14844 26.9297 5.6875 25.1562 5.59375 23.1562C5.47656 21.0938 5.47656 14.9062 5.59375 12.8438C5.69531 10.8438 6.14844 9.07031 7.60938 7.60938C9.07031 6.14844 10.8516 5.6875 12.8438 5.59375C14.9062 5.47656 21.0938 5.47656 23.1562 5.59375C25.1562 5.69531 26.9297 6.14844 28.3906 7.60938C29.8516 9.07031 30.3125 10.8438 30.4062 12.8438C30.5234 14.8984 30.5234 21.0781 30.4062 23.1484C30.3047 25.1484 29.8516 26.9219 28.3906 28.3828V28.3906Z" fill="white"/>
</svg>
