<svg width="37" height="36" viewBox="0 0 37 36" fill="none" xmlns="http://www.w3.org/2000/svg">
<path d="M31.4789 15.407C28.9352 15.4126 26.4492 14.642 24.3795 13.202V23.2538C24.3795 25.1157 23.7956 26.9326 22.703 28.4626C21.6103 29.9926 20.0667 31.1626 18.2745 31.8151C16.4823 32.4676 14.5283 32.5745 12.6725 32.1132C10.8167 31.652 9.15171 30.6563 7.8914 29.2557C6.63109 27.8551 5.85062 26.1057 5.63671 24.2551C5.42281 22.4045 5.80437 20.537 6.71203 18.9001C7.61968 17.2632 9.02452 15.9357 10.7358 15.092C12.447 14.2482 14.3722 13.9388 16.2684 14.192V19.2488C15.4012 18.9845 14.4705 18.9901 13.6091 19.2713C12.7477 19.5526 11.9961 20.0926 11.47 20.807C10.9439 21.5213 10.6606 22.3876 10.6664 23.2763C10.6722 24.1651 10.967 25.0201 11.5047 25.7345C12.0423 26.4488 12.7997 26.9776 13.6669 27.2476C14.5341 27.5176 15.4648 27.5176 16.3262 27.242C17.1876 26.9663 17.945 26.432 18.4769 25.7176C19.0087 25.0032 19.2978 24.137 19.2978 23.2538V3.6001H24.3853C24.3795 4.01635 24.42 4.43822 24.4952 4.84885C24.6744 5.76572 25.0386 6.64322 25.5762 7.41947C26.1139 8.19572 26.8077 8.85947 27.6112 9.36572C28.7617 10.1026 30.1087 10.4963 31.4847 10.4963V15.4126L31.4789 15.407Z" fill="white"/>
</svg>
