<svg width="25" height="21" viewBox="0 0 25 21" fill="none" xmlns="http://www.w3.org/2000/svg">
<g clip-path="url(#clip0_69_582)">
<path d="M23.3329 0V3.23083H21.6666V6.46166H23.3329V16.1541H21.6666V6.46166H20.0003V16.1541H18.334V19.385H16.6677V11.3083H15.0014V8.07745H16.6677V6.46242H13.3343V4.84739H15.0006V3.23236H10.0934V4.84739H11.6672V6.46242H8.33386V8.07745H10.0002V11.3083H8.33386V19.385H6.66756V16.1541H5.00126V6.46166H3.33497V16.1541H1.66867V6.46166H3.33497V3.23083H1.66867V0H0V21H25V0H23.3337H23.3329ZM1.6663 19.3842V17.7692H3.3326V19.3842H1.6663ZM14.9998 14.5383V17.7692H13.3335V12.9233H14.9998V14.5383ZM11.6665 8.07669H13.3328V9.69172H11.6665V8.07669ZM10.0002 16.1541V12.9233H11.6665V17.7692H10.0002V16.1541ZM23.3329 19.3842H21.6666V17.7692H23.3329V19.3842Z" fill="#FEABE3"/>
</g>
<defs>
<clipPath id="clip0_69_582">
<rect width="25" height="21" fill="white"/>
</clipPath>
</defs>
</svg>
