<svg width="21" height="21" viewBox="0 0 21 21" fill="none" xmlns="http://www.w3.org/2000/svg">
<g clip-path="url(#clip0_69_585)">
<path d="M6.46166 16.1541H8.07669V14.5383V12.9233H6.46166V11.3075H4.84587H3.23083V12.9233V14.5383H4.84587V16.1541V17.7692H3.23083V19.3842H4.84587H6.46166V17.7692V16.1541Z" fill="#864FAB"/>
<path d="M19.3842 6.46162V4.84582V3.23079H17.7692V1.61499H16.1542H14.5384V3.23079H12.9233V4.84582V6.46162H11.3075V8.07665H12.9233H14.5384H16.1542V9.69244H14.5384H12.9233V11.3075H11.3075V12.9233V14.5383H12.9233V16.1541H14.5384V17.7691V19.3842H16.1542H17.7692V17.7691H16.1542V16.1541V14.5383H17.7692V12.9233V11.3075H19.3842V12.9233V14.5383H21V12.9233V11.3075V9.69244V8.07665V6.46162H19.3842Z" fill="#864FAB"/>
<path d="M1.61503 11.3075H3.23083V9.69248H4.84586V8.07669H6.46166V6.46166H4.84586V4.84586H6.46166H8.07669V3.23083V1.61503H9.69248H11.3075H12.9233H14.5383V0H12.9233H11.3075H9.69248H8.07669H6.46166V1.61503H4.84586H3.23083V3.23083H1.61503V4.84586V6.46166H0V8.07669V9.69248V11.3075V12.9233V14.5383H1.61503V12.9233V11.3075Z" fill="#864FAB"/>
<path d="M17.7692 16.1541V17.7692H19.3842V16.1541V14.5383H17.7692V16.1541Z" fill="#864FAB"/>
<path d="M3.23082 14.5383H1.61502V16.1541V17.7692H3.23082V16.1541V14.5383Z" fill="#864FAB"/>
<path d="M11.3075 19.3842H9.6925H8.0767H6.46167V21H8.0767H9.6925H11.3075H12.9233H14.5384V19.3842H12.9233H11.3075Z" fill="#864FAB"/>
</g>
<defs>
<clipPath id="clip0_69_585">
<rect width="21" height="21" fill="white"/>
</clipPath>
</defs>
</svg>
