<svg width="17" height="24" viewBox="0 0 17 24" fill="none" xmlns="http://www.w3.org/2000/svg">
<g clip-path="url(#clip0_65_148)">
<path d="M9.43873 18.4619H7.56131H5.68479H3.80737V20.3077H5.68479H7.56131V22.1534V24H9.43873V22.1534V20.3077H11.3153H13.1918V18.4619H11.3153H9.43873Z" fill="#FEABE3"/>
<path d="M15.0959 16.589H13.2194V18.4347H15.0959V16.589Z" fill="#FEABE3"/>
<path d="M9.43873 12.8704H7.56131H5.68479H3.80737V14.7161H5.68479V16.5627H7.56131H9.43873H11.3153V14.7161H13.1918V12.8704H11.3153H9.43873Z" fill="#FEABE3"/>
<path d="M11.3153 0H9.43873H7.56131H5.68479V1.84575H3.80737V3.69238V5.53813V7.38475V9.2305V11.0771H5.68479H7.56131H9.43873H11.3153H13.1918V9.2305V7.38475V5.53813V3.69238V1.84575H11.3153V0Z" fill="#FEABE3"/>
<path d="M3.78064 16.589H1.90411V18.4347H3.78064V16.589Z" fill="#FEABE3"/>
<path d="M15.1226 12.8704V14.7161V16.5627H17V14.7161V12.8704H15.1226Z" fill="#FEABE3"/>
<path d="M0 14.7161V16.5627H1.87653V14.7161V12.8704H0V14.7161Z" fill="#FEABE3"/>
</g>
<defs>
<clipPath id="clip0_65_148">
<rect width="17" height="24" fill="white"/>
</clipPath>
</defs>
</svg>
