<svg width="26" height="26" viewBox="0 0 26 26" fill="none" xmlns="http://www.w3.org/2000/svg">
<g clip-path="url(#clip0_56_44)">
<path d="M25.9984 10.4003H20.799V15.5997H25.9984V10.4003Z" fill="#864FAB"/>
<path d="M15.5997 10.4003V15.5997H20.799V20.8007H15.5997V26H10.4003V20.8007H5.19934V15.5997H10.4003V10.4003H5.19934V5.20098H10.4003V0H15.5997V5.20098H20.799V10.4003H15.5997Z" fill="#864FAB"/>
<path d="M5.19935 10.4003H0V15.5997H5.19935V10.4003Z" fill="#864FAB"/>
<path d="M25.9984 0H20.799V5.19935H25.9984V0Z" fill="#864FAB"/>
<path d="M5.19935 0H0V5.19935H5.19935V0Z" fill="#864FAB"/>
<path d="M25.9984 10.4003H20.799V15.5997H25.9984V10.4003Z" fill="#864FAB"/>
<path d="M15.5997 10.4003V15.5997H20.799V20.8007H15.5997V26H10.4003V20.8007H5.19934V15.5997H10.4003V10.4003H5.19934V5.20098H10.4003V0H15.5997V5.20098H20.799V10.4003H15.5997Z" fill="#864FAB"/>
<path d="M5.19935 10.4003H0V15.5997H5.19935V10.4003Z" fill="#864FAB"/>
<path d="M25.9984 0H20.799V5.19935H25.9984V0Z" fill="#864FAB"/>
<path d="M5.19935 0H0V5.19935H5.19935V0Z" fill="#864FAB"/>
</g>
<defs>
<clipPath id="clip0_56_44">
<rect width="26" height="26" fill="white"/>
</clipPath>
</defs>
</svg>
