<svg width="19" height="19" viewBox="0 0 19 19" fill="none" xmlns="http://www.w3.org/2000/svg">
<g clip-path="url(#clip0_81_888)">
<path d="M1.35785 4.07237V2.71454H2.71448V1.35791H4.07231V4.07237H1.35785Z" fill="#06B4AA"/>
<path d="M14.9289 1.35791H16.2855V2.71454H17.6422V4.07237H14.9289V1.35791Z" fill="#06B4AA"/>
<path d="M17.6422 14.929V16.2856H16.2855V17.6422H14.9289V14.929H17.6422Z" fill="#06B4AA"/>
<path d="M4.07231 17.6422H2.71448V16.2856H1.35785V14.929H4.07231V17.6422Z" fill="#06B4AA"/>
<path d="M9.5 6.78554V8.14337H17.6422V10.8578H13.5711V12.2145H17.6422V10.8578H19V14.9277L17.6422 14.9289L17.6434 13.5711H13.5711V17.6434L14.9289 17.6422L14.9277 19H10.8566V17.6434L12.2145 17.6422V9.5H10.8566V17.6422H8.14337V13.5711H6.78554V17.6422H8.14337V19H4.07228V17.6422L5.42891 17.6434V13.5711H1.35783V14.9289L0.00119632 14.9277V13.5711L0 12.2145L0.00119632 10.8578H1.35783V12.2145H9.5V10.8578H1.35783V8.14337H5.42891V6.78554H1.35783V8.14337H0.00119632V4.07228H1.35783V5.42891H5.42891V1.35783H4.07228V0.00119632H5.42891L6.78554 0L8.14337 0.00119632V1.35783H6.78554V9.5H8.14337V1.35783H10.8578L10.8566 2.71565V4.07228L10.8578 5.42891H12.2145V1.35783H10.8578L10.8566 0.00119632H14.9277L14.9289 1.35783H13.5711V5.42891H17.6434L17.6422 4.07228H19V8.14337H17.6434L17.6422 6.78554H9.5Z" fill="#06B4AA"/>
</g>
<defs>
<clipPath id="clip0_81_888">
<rect width="19" height="19" fill="white"/>
</clipPath>
</defs>
</svg>
