<svg width="20" height="20" viewBox="0 0 20 20" fill="none" xmlns="http://www.w3.org/2000/svg">
<g clip-path="url(#clip0_56_59)">
<path d="M20 1.53866H18.4612V3.07731H13.8463V1.53866H15.385H16.9238H18.4625V0H16.9238H15.385H13.8463H12.3075V9.22941H10.7687V0H9.22999H7.69124H6.15249H4.61373V1.53866H3.07498V3.07731H1.53623V4.61597H0V9.23193H1.53875V7.69328H6.15375V9.23193H4.615H3.07624H1.53749V10.7706H3.07624V12.3092H1.53749V13.8479H0V18.4639H1.53875V16.9252H6.15375V18.4639H4.615H3.07624H1.53749V20.0025H3.07624H4.615H6.15375H7.6925V10.7731H9.23125V20.0038H10.77V18.4651V10.7731H12.3088V18.4651H10.77V20.0038H12.3088H13.8475H15.3863V18.4651H16.925V16.9265H18.4638V15.3878H20.0025V10.7719H18.4638V12.3105H13.8488V10.7719H15.3875H16.9263H18.465V9.2332H16.9263V7.69454H18.465V6.15589H20.0038V1.53866H20ZM4.615 6.15336H1.53875V4.61471H4.61626V1.53866H6.15501V3.07731V4.61597V6.15462H4.61626L4.615 6.15336ZM4.615 15.384H1.53875V13.8454H4.61626V10.7693H5.66902H6.15501V12.308V13.8466V15.3853H4.61626L4.615 15.384ZM7.6925 9.23067V1.53866H9.23125V9.23067H7.6925ZM15.385 13.8466H18.4625V15.3853H15.385V16.924V18.4626H13.8463V16.924V15.3853V13.8466H15.385ZM18.4625 6.15336H15.385V7.69202V9.23067H14.3322H13.8463V7.69202V6.15336V4.61471H15.385H18.4625V6.15336Z" fill="#EE8541"/>
</g>
<defs>
<clipPath id="clip0_56_59">
<rect width="20" height="20" fill="white"/>
</clipPath>
</defs>
</svg>
