<?xml version="1.0" encoding="UTF-8"?><svg id="Layer_2" xmlns="http://www.w3.org/2000/svg" viewBox="0 0 1080 1080.4"><defs><style>.cls-1{fill:#11070c;}</style></defs><g id="elements"><path class="cls-1" d="M635.29,762.76v63.53h-190.59s-63.53,0-63.53,0v-63.53s63.53,0,63.53,0h190.59ZM635.29,889.82h-190.59s0,63.53,0,63.53h190.59s63.53,0,63.53,0v-127.06s-63.53,0-63.53,0v63.53ZM381.18,1016.87v63.53h317.65v-63.53h-190.59s-63.53,0-63.53,0v-63.53h-63.53v63.53ZM762.35,1016.87v63.53s63.53,0,63.53,0h190.59v-63.53h-190.59s-63.53,0-63.53,0ZM1016.47,826.29h63.53v-63.53h-63.53s-190.59,0-190.59,0h-63.53v190.59h254.12s0,63.53,0,63.53h63.53v-63.53s0-63.53,0-63.53h-254.12v-63.53s190.59,0,190.59,0ZM1016.47,254.12h-190.59s0-63.53,0-63.53V63.53h190.59S1016.47,0,1016.47,0h-190.59s-63.53,0-63.53,0v317.65h254.12s0-63.53,0-63.53ZM1016.47,190.59v63.53h63.53s0-63.53,0-63.53V63.53s-63.53,0-63.53,0v63.53s0,63.53,0,63.53ZM698.82,191.07v-63.53h-75.9s-178.22-.48-178.22-.48v-63.53s178.22.48,178.22.48h75.9s0-63.53,0-63.53h-75.9S444.71,0,444.71,0h-63.53v317.65h63.53v-63.53s0-63.53,0-63.53l178.22.48h75.9ZM127.06,381.26H0S0,444.79,0,444.79h127.06v63.53s0,63.53,0,63.53v127.06s63.53,0,63.53,0v-63.53s0-63.53,0-63.53v-127.06h127.06v-63.53h-127.06s-63.53,0-63.53,0ZM635.29,444.79v63.53s-190.59,0-190.59,0v-63.53s0-63.53,0-63.53h-63.53v63.53s0,63.53,0,63.53v190.59h63.53s0-63.53,0-63.53v-63.53h190.59s0,63.53,0,63.53v63.53h63.53s0-63.53,0-63.53v-254.12s-63.53,0-63.53,0v63.53ZM63.53,127.06V0S0,0,0,0v63.53s0,63.53,0,63.53v127.06h63.53s0-63.53,0-63.53v-63.53ZM254.12,254.12h-63.53s0-63.53,0-63.53V63.53s-63.53,0-63.53,0v63.53s0,63.53,0,63.53v63.53s-63.53,0-63.53,0v63.53s63.53,0,63.53,0h127.06s0-63.53,0-63.53ZM317.65,190.59V0s-63.53,0-63.53,0v63.53s0,63.53,0,63.53v127.06h63.53s0-63.53,0-63.53ZM317.65,826.29h-63.53v63.53h63.53v-63.53ZM254.12,889.82h-63.53v63.53h63.53v-63.53ZM190.59,889.82h-63.53v63.53h63.53v-63.53ZM190.59,826.29h-63.53v63.53h63.53v-63.53ZM190.59,953.34h-63.53v63.53h63.53v-63.53ZM127.06,889.82h-63.53v63.53h63.53v-63.53ZM317.65,953.34h-63.53v63.53h63.53v-63.53ZM63.53,826.29H0v63.53h63.53v-63.53ZM63.53,953.34H0v63.53h63.53v-63.53ZM254.12,1016.87h-63.53v63.53h63.53v-63.53ZM127.06,1016.87h-63.53v63.53h63.53v-63.53ZM254.12,762.76h-63.53v63.53h63.53v-63.53ZM127.06,762.76h-63.53v63.53h63.53v-63.53ZM1080,508.32h-63.53v63.53h63.53v-63.53ZM1016.47,571.85h-63.53v63.53h63.53v-63.53ZM889.41,571.85h-63.53v63.53h63.53v-63.53ZM952.94,571.85h-63.53v63.53h63.53v-63.53ZM952.94,508.32h-63.53v63.53h63.53v-63.53ZM889.41,444.79h-63.53v63.53h63.53v-63.53ZM1016.47,444.79h-63.53v63.53h63.53v-63.53ZM952.94,444.79h-63.53v63.53h63.53v-63.53ZM825.88,508.32h-63.53v63.53h63.53v-63.53ZM1080,381.26h-63.53v63.53h63.53v-63.53ZM825.88,381.26h-63.53v63.53h63.53v-63.53ZM952.94,635.37h-63.53v63.53h63.53v-63.53ZM952.94,381.26h-63.53v63.53h63.53v-63.53Z"/></g></svg>