<?xml version="1.0" encoding="UTF-8"?><svg id="Layer_2" xmlns="http://www.w3.org/2000/svg" viewBox="0 0 1080 1080"><defs><style>.cls-1{fill:#f9f4f2;}.cls-2{fill:#11070c;}</style></defs><g id="elements"><rect class="cls-2" width="1080" height="1080"/><path class="cls-1" d="M624.49,735.92v54.77h-164.32s-54.77,0-54.77,0v-54.77s54.77,0,54.77,0h164.32ZM624.49,845.47h-164.32s0,54.77,0,54.77h164.32s54.77,0,54.77,0v-109.55s-54.77,0-54.77,0v54.77ZM405.4,955.01v54.77h273.86v-54.77h-164.32s-54.77,0-54.77,0v-54.77h-54.77v54.77ZM734.04,955.01v54.77s54.77,0,54.77,0h164.32v-54.77h-164.32s-54.77,0-54.77,0ZM953.13,790.7h54.77v-54.77h-54.77s-164.32,0-164.32,0h-54.77v164.32h219.09s0,54.77,0,54.77h54.77v-54.77s0-54.77,0-54.77h-219.09v-54.77s164.32,0,164.32,0ZM953.13,297.39h-164.32s0-54.77,0-54.77v-109.55h164.32s0-54.77,0-54.77h-164.32s-54.77,0-54.77,0v273.86h219.09s0-54.77,0-54.77ZM953.13,242.62v54.77h54.77s0-54.77,0-54.77v-109.55s-54.77,0-54.77,0v54.77s0,54.77,0,54.77ZM679.26,243.04v-54.77h-65.43s-153.66-.42-153.66-.42v-54.77s153.66.42,153.66.42h65.43s0-54.77,0-54.77h-65.43s-153.66-.42-153.66-.42h-54.77v273.86h54.77v-54.77s0-54.77,0-54.77l153.66.42h65.43ZM186.31,407.01h-109.55s0,54.77,0,54.77h109.55v54.77s0,54.77,0,54.77v109.55s54.77,0,54.77,0v-54.77s0-54.77,0-54.77v-109.55h109.55v-54.77h-109.55s-54.77,0-54.77,0ZM624.49,461.78v54.77s-164.32,0-164.32,0v-54.77s0-54.77,0-54.77h-54.77v54.77s0,54.77,0,54.77v164.32h54.77s0-54.77,0-54.77v-54.77h164.32s0,54.77,0,54.77v54.77h54.77s0-54.77,0-54.77v-219.09s-54.77,0-54.77,0v54.77ZM131.53,187.85v-109.55s-54.77,0-54.77,0v54.77s0,54.77,0,54.77v109.55h54.77s0-54.77,0-54.77v-54.77ZM295.85,297.39h-54.77s0-54.77,0-54.77v-109.55s-54.77,0-54.77,0v54.77s0,54.77,0,54.77v54.77s-54.77,0-54.77,0v54.77s54.77,0,54.77,0h109.55s0-54.77,0-54.77ZM350.63,242.62V78.3s-54.77,0-54.77,0v54.77s0,54.77,0,54.77v109.55h54.77s0-54.77,0-54.77ZM350.63,790.7h-54.77v54.77h54.77v-54.77ZM295.85,845.47h-54.77v54.77h54.77v-54.77ZM241.08,845.47h-54.77v54.77h54.77v-54.77ZM241.08,790.7h-54.77v54.77h54.77v-54.77ZM241.08,900.24h-54.77v54.77h54.77v-54.77ZM186.31,845.47h-54.77v54.77h54.77v-54.77ZM350.63,900.24h-54.77v54.77h54.77v-54.77ZM131.53,790.7h-54.77v54.77h54.77v-54.77ZM131.53,900.24h-54.77v54.77h54.77v-54.77ZM295.85,955.01h-54.77v54.77h54.77v-54.77ZM186.31,955.01h-54.77v54.77h54.77v-54.77ZM295.85,735.92h-54.77v54.77h54.77v-54.77ZM186.31,735.92h-54.77v54.77h54.77v-54.77ZM953.13,516.55v54.77h54.77v-54.77h-54.77ZM898.36,571.32v-54.77h-54.78v109.55h109.55v-54.78h-54.77ZM788.81,571.32v54.78h54.77v-54.78h-54.77ZM843.58,516.55v109.55h54.78v-109.55h-54.78ZM843.58,516.55v54.77h54.78v-54.77h-54.78ZM788.81,461.78v54.77h54.77v-54.77h-54.77ZM843.58,461.78v54.77h109.55v-54.77h-109.55ZM843.58,461.78v54.77h54.78v-54.77h-54.78ZM734.04,516.55v54.77h54.77v-54.77h-54.77ZM953.13,407.01v54.77h54.77v-54.77h-54.77ZM734.04,407.01v54.77h54.77v-54.77h-54.77ZM843.58,626.1v54.77h54.78v-54.77h-54.78ZM843.58,407.01v54.77h54.78v-54.77h-54.78Z"/></g></svg>