<?xml version="1.0" encoding="UTF-8"?><svg id="Layer_2" xmlns="http://www.w3.org/2000/svg" viewBox="0 0 1080 1080.4"><defs><style>.cls-1{fill:#fff;}.cls-2{fill:#f2afe0;}.cls-3{fill:#ee8541;}</style></defs><g id="elements"><polygon class="cls-3" points="444.71 762.76 381.18 762.76 381.18 826.29 444.71 826.29 635.29 826.29 635.29 762.76 444.71 762.76"/><polygon class="cls-3" points="635.29 889.82 444.71 889.82 444.71 953.35 635.29 953.35 698.82 953.35 698.82 889.82 698.82 826.29 635.29 826.29 635.29 889.82"/><polygon class="cls-3" points="381.18 1016.87 381.18 1080.4 444.71 1080.4 508.24 1080.4 698.82 1080.4 698.82 1016.87 508.24 1016.87 444.71 1016.87 444.71 953.35 381.18 953.35 381.18 1016.87"/><polygon class="cls-3" points="762.35 1016.87 762.35 1080.4 825.88 1080.4 1016.47 1080.4 1016.47 1016.87 825.88 1016.87 762.35 1016.87"/><polygon class="cls-3" points="1016.47 826.29 1080 826.29 1080 762.76 1016.47 762.76 825.88 762.76 762.35 762.76 762.35 826.29 762.35 889.82 762.35 953.35 825.88 953.35 1016.47 953.35 1016.47 1016.87 1080 1016.87 1080 953.35 1080 889.82 1016.47 889.82 825.88 889.82 825.88 826.29 1016.47 826.29"/><polygon class="cls-1" points="1016.47 254.12 825.88 254.12 825.88 190.59 825.88 127.06 825.88 63.53 1016.47 63.53 1016.47 0 825.88 0 762.35 0 762.35 63.53 762.35 127.06 762.35 190.59 762.35 254.12 762.35 317.65 825.88 317.65 1016.47 317.65 1016.47 254.12"/><polygon class="cls-1" points="1016.47 190.59 1016.47 254.12 1080 254.12 1080 190.59 1080 127.06 1080 63.53 1016.47 63.53 1016.47 127.06 1016.47 190.59"/><polygon class="cls-1" points="698.82 191.07 698.82 127.54 622.93 127.54 444.71 127.06 444.71 63.53 622.93 64.01 698.82 64.01 698.82 .48 622.93 .48 444.71 0 381.18 0 381.18 63.53 381.18 127.06 381.18 190.59 381.18 254.12 381.18 317.65 444.71 317.65 444.71 254.12 444.71 190.59 622.93 191.07 698.82 191.07"/><polygon class="cls-3" points="127.06 381.26 0 381.26 0 444.79 127.06 444.79 127.06 508.32 127.06 571.85 127.06 635.37 127.06 698.9 190.59 698.9 190.59 635.37 190.59 571.85 190.59 508.32 190.59 444.79 317.65 444.79 317.65 381.26 190.59 381.26 127.06 381.26"/><polygon class="cls-3" points="635.29 444.79 635.29 508.32 444.71 508.32 444.71 444.79 444.71 381.26 381.18 381.26 381.18 444.79 381.18 508.32 381.18 571.85 381.18 635.37 381.18 698.9 444.71 698.9 444.71 635.37 444.71 571.85 635.29 571.85 635.29 635.37 635.29 698.9 698.82 698.9 698.82 635.37 698.82 571.85 698.82 508.32 698.82 444.79 698.82 381.26 635.29 381.26 635.29 444.79"/><polygon class="cls-1" points="63.53 127.06 63.53 63.53 63.53 0 0 0 0 63.53 0 127.06 0 190.59 0 254.12 63.53 254.12 63.53 190.59 63.53 127.06"/><polygon class="cls-1" points="254.12 254.12 190.59 254.12 190.59 190.59 190.59 127.06 190.59 63.53 127.06 63.53 127.06 127.06 127.06 190.59 127.06 254.12 63.53 254.12 63.53 317.65 127.06 317.65 190.59 317.65 254.12 317.65 254.12 254.12"/><polygon class="cls-1" points="317.65 190.59 317.65 127.06 317.65 63.53 317.65 0 254.12 0 254.12 63.53 254.12 127.06 254.12 190.59 254.12 254.12 317.65 254.12 317.65 190.59"/><rect class="cls-2" x="254.12" y="826.29" width="63.53" height="63.53"/><rect class="cls-2" x="190.59" y="889.82" width="63.53" height="63.53"/><rect class="cls-2" x="127.06" y="889.82" width="63.53" height="63.53"/><rect class="cls-2" x="127.06" y="826.29" width="63.53" height="63.53"/><rect class="cls-2" x="127.06" y="953.34" width="63.53" height="63.53"/><rect class="cls-2" x="63.53" y="889.82" width="63.53" height="63.53"/><rect class="cls-2" x="254.12" y="953.34" width="63.53" height="63.53"/><rect class="cls-2" x="0" y="826.29" width="63.53" height="63.53"/><rect class="cls-2" x="0" y="953.34" width="63.53" height="63.53"/><rect class="cls-2" x="190.59" y="1016.87" width="63.53" height="63.53"/><rect class="cls-2" x="63.53" y="1016.87" width="63.53" height="63.53"/><rect class="cls-2" x="190.59" y="762.76" width="63.53" height="63.53"/><rect class="cls-2" x="63.53" y="762.76" width="63.53" height="63.53"/><rect class="cls-2" x="1016.47" y="508.32" width="63.53" height="63.53"/><rect class="cls-2" x="952.94" y="571.85" width="63.53" height="63.53"/><rect class="cls-2" x="825.88" y="571.85" width="63.53" height="63.53"/><rect class="cls-2" x="889.41" y="571.85" width="63.53" height="63.53"/><rect class="cls-2" x="889.41" y="508.32" width="63.53" height="63.53"/><rect class="cls-2" x="825.88" y="444.79" width="63.53" height="63.53"/><rect class="cls-2" x="952.94" y="444.79" width="63.53" height="63.53"/><rect class="cls-2" x="889.41" y="444.79" width="63.53" height="63.53"/><rect class="cls-2" x="762.35" y="508.32" width="63.53" height="63.53"/><rect class="cls-2" x="1016.47" y="381.26" width="63.53" height="63.53"/><rect class="cls-2" x="762.35" y="381.26" width="63.53" height="63.53"/><rect class="cls-2" x="889.41" y="635.37" width="63.53" height="63.53"/><rect class="cls-2" x="889.41" y="381.26" width="63.53" height="63.53"/></g></svg>