<?xml version="1.0" encoding="UTF-8"?><svg id="Layer_2" xmlns="http://www.w3.org/2000/svg" viewBox="0 0 1080 1080.41"><defs><style>.cls-1{fill:#fff;}</style></defs><g id="elements"><path class="cls-1" d="M381.18,762.76v63.53h254.12v-63.53h-254.12ZM635.3,826.29v63.53h-190.59v63.53h254.12v-127.06h-63.53ZM444.71,1016.88v-63.53h-63.53v127.06h317.65v-63.53h-254.12ZM762.36,1016.88v63.53h254.11v-63.53h-254.11ZM1080,826.29v-63.53h-317.64v190.59h254.11v63.53h63.53v-127.06h-254.11v-63.53h254.11ZM1016.47,63.53V0h-254.11v317.65h254.11v-63.53h-190.58V63.53h190.58ZM1016.47,63.53v190.59h63.53V63.53h-63.53ZM622.93,64.02h75.9V.49h-75.9l-178.22-.49h-63.53v317.65h63.53v-127.06l178.22.49h75.9v-63.53h-75.9l-178.22-.49v-63.53l178.22.49ZM0,381.26v63.53h127.06v254.12h63.53v-254.12h127.06v-63.53H0ZM635.3,381.26v127.06h-190.59v-127.06h-63.53v317.65h63.53v-127.06h190.59v127.06h63.53v-317.65h-63.53ZM0,0v254.12h63.53V0H0ZM190.59,254.12V63.53h-63.53v190.59h-63.53v63.53h190.59v-63.53h-63.53ZM254.12,0v254.12h63.53V0h-63.53ZM254.12,826.29v63.53h63.53v-63.53h-63.53ZM127.06,889.82v63.53h127.06v-63.53h-127.06ZM127.06,889.82v63.53h63.53v-63.53h-63.53ZM127.06,826.29v63.53h63.53v-63.53h-63.53ZM127.06,953.35v63.53h63.53v-63.53h-63.53ZM63.53,889.82v63.53h63.53v-63.53h-63.53ZM254.12,953.35v63.53h63.53v-63.53h-63.53ZM0,826.29v63.53h63.53v-63.53H0ZM0,953.35v63.53h63.53v-63.53H0ZM190.59,1016.88v63.53h63.53v-63.53h-63.53ZM63.53,1016.88v63.53h63.53v-63.53h-63.53ZM190.59,762.76v63.53h63.53v-63.53h-63.53ZM63.53,762.76v63.53h63.53v-63.53h-63.53ZM1016.47,508.32v63.53h63.53v-63.53h-63.53ZM952.94,571.85v-63.53h-63.53v127.06h127.06v-63.53h-63.53ZM825.89,571.85v63.53h63.52v-63.53h-63.52ZM889.41,508.32v127.06h63.53v-127.06h-63.53ZM889.41,508.32v63.53h63.53v-63.53h-63.53ZM825.89,444.79v63.53h63.52v-63.53h-63.52ZM889.41,444.79v63.53h127.06v-63.53h-127.06ZM889.41,444.79v63.53h63.53v-63.53h-63.53ZM762.36,508.32v63.53h63.53v-63.53h-63.53ZM1016.47,381.26v63.53h63.53v-63.53h-63.53ZM762.36,381.26v63.53h63.53v-63.53h-63.53ZM889.41,635.38v63.53h63.53v-63.53h-63.53ZM889.41,381.26v63.53h63.53v-63.53h-63.53Z"/></g></svg>