<?xml version="1.0" encoding="UTF-8"?><svg id="Layer_2" xmlns="http://www.w3.org/2000/svg" viewBox="0 0 1080 1080"><defs><style>.cls-1{fill:#7e52a6;}.cls-2{fill:#f9f4f2;}</style></defs><g id="elements"><rect class="cls-1" width="1080" height="1080"/><path class="cls-2" d="M405.4,735.92v54.78h219.09v-54.78h-219.09ZM624.49,790.7v54.77h-164.32v54.77h219.1v-109.54h-54.78ZM460.17,955.02v-54.78h-54.77v109.55h273.87v-54.77h-219.1ZM734.04,955.02v54.77h219.09v-54.77h-219.09ZM1007.9,790.7v-54.78h-273.86v164.32h219.09v54.78h54.77v-109.55h-219.09v-54.77h219.09ZM953.13,133.08v-54.78h-219.09v273.87h219.09v-54.78h-164.32v-164.31h164.32ZM953.13,133.08v164.31h54.77v-164.31h-54.77ZM613.83,133.49h65.44v-54.77h-65.44l-153.66-.42h-54.77v273.87h54.77v-109.55l153.66.42h65.44v-54.77h-65.44l-153.66-.42v-54.77l153.66.41ZM76.76,407.01v54.77h109.55v219.09h54.77v-219.09h109.55v-54.77H76.76ZM624.49,407.01v109.54h-164.32v-109.54h-54.77v273.86h54.77v-109.54h164.32v109.54h54.78v-273.86h-54.78ZM76.76,78.3v219.09h54.78V78.3h-54.78ZM241.08,297.39v-164.31h-54.77v164.31h-54.77v54.78h164.32v-54.78h-54.78ZM295.86,78.3v219.09h54.77V78.3h-54.77ZM295.86,790.7v54.77h54.77v-54.77h-54.77ZM186.31,845.47v54.77h109.55v-54.77h-109.55ZM186.31,845.47v54.77h54.77v-54.77h-54.77ZM186.31,790.7v54.77h54.77v-54.77h-54.77ZM186.31,900.24v54.78h54.77v-54.78h-54.77ZM131.54,845.47v54.77h54.77v-54.77h-54.77ZM295.86,900.24v54.78h54.77v-54.78h-54.77ZM76.76,790.7v54.77h54.78v-54.77h-54.78ZM76.76,900.24v54.78h54.78v-54.78h-54.78ZM241.08,955.02v54.77h54.78v-54.77h-54.78ZM131.54,955.02v54.77h54.77v-54.77h-54.77ZM241.08,735.92v54.78h54.78v-54.78h-54.78ZM131.54,735.92v54.78h54.77v-54.78h-54.77ZM953.13,516.56v54.77h54.77v-54.77h-54.77ZM843.58,571.33v54.77h109.55v-54.77h-109.55ZM788.81,571.33v54.77h54.77v-54.77h-54.77ZM843.58,571.33v54.77h54.78v-54.77h-54.78ZM843.58,516.56v54.77h54.78v-54.77h-54.78ZM788.81,461.78v54.77h54.77v-54.77h-54.77ZM898.36,461.78v54.77h54.77v-54.77h-54.77ZM843.58,461.78v54.77h54.78v-54.77h-54.78ZM734.04,516.56v54.77h54.77v-54.77h-54.77ZM953.13,407.01v54.77h54.77v-54.77h-54.77ZM734.04,407.01v54.77h54.77v-54.77h-54.77ZM843.58,626.1v54.77h54.78v-54.77h-54.78ZM843.58,407.01v54.77h54.78v-54.77h-54.78Z"/></g></svg>