<?xml version="1.0" encoding="UTF-8"?><svg id="Layer_2" xmlns="http://www.w3.org/2000/svg" viewBox="0 0 1080 1080"><defs><style>.cls-1{fill:#ee8541;}.cls-2{fill:#f9f4f2;}</style></defs><g id="elements"><rect class="cls-1" width="1080" height="1080"/><path class="cls-2" d="M403.07,735.82v54.77h219.09v-54.77h-219.09ZM622.16,790.59v54.77h-164.32v54.78h219.09v-109.55h-54.77ZM457.84,954.91v-54.77h-54.77v109.54h273.86v-54.77h-219.09ZM731.7,954.91v54.77h219.09v-54.77h-219.09ZM1005.57,790.59v-54.77h-273.87v164.32h219.09v54.77h54.78v-109.55h-219.09v-54.77h219.09ZM950.79,132.97v-54.78h-219.09v273.87h219.09v-54.77h-164.31v-164.32h164.31ZM950.79,132.97v164.32h54.78v-164.32h-54.78ZM611.5,133.39h65.43v-54.78h-65.43l-153.66-.42h-54.77v273.87h54.77v-109.55l153.66.42h65.43v-54.77h-65.43l-153.66-.42v-54.77l153.66.42ZM74.43,406.9v54.77h109.54v219.1h54.78v-219.1h109.54v-54.77H74.43ZM622.16,406.9v109.55h-164.32v-109.55h-54.77v273.87h54.77v-109.55h164.32v109.55h54.77v-273.87h-54.77ZM74.43,78.19v219.1h54.77V78.19h-54.77ZM238.75,297.29v-164.32h-54.78v164.32h-54.77v54.77h164.32v-54.77h-54.77ZM293.52,78.19v219.1h54.77V78.19h-54.77ZM293.52,790.59v54.77h54.77v-54.77h-54.77ZM183.97,845.36v54.78h109.55v-54.78h-109.55ZM183.97,845.36v54.78h54.78v-54.78h-54.78ZM183.97,790.59v54.77h54.78v-54.77h-54.78ZM183.97,900.14v54.77h54.78v-54.77h-54.78ZM129.2,845.36v54.78h54.77v-54.78h-54.77ZM293.52,900.14v54.77h54.77v-54.77h-54.77ZM74.43,790.59v54.77h54.77v-54.77h-54.77ZM74.43,900.14v54.77h54.77v-54.77h-54.77ZM238.75,954.91v54.77h54.77v-54.77h-54.77ZM129.2,954.91v54.77h54.77v-54.77h-54.77ZM238.75,735.82v54.77h54.77v-54.77h-54.77ZM129.2,735.82v54.77h54.77v-54.77h-54.77ZM950.79,516.45v54.77h54.78v-54.77h-54.78ZM896.02,571.22v-54.77h-54.77v109.54h109.54v-54.77h-54.77ZM786.48,571.22v54.77h54.77v-54.77h-54.77ZM841.25,516.45v109.54h54.77v-109.54h-54.77ZM841.25,516.45v54.77h54.77v-54.77h-54.77ZM786.48,461.67v54.78h54.77v-54.78h-54.77ZM841.25,461.67v54.78h109.54v-54.78h-109.54ZM841.25,461.67v54.78h54.77v-54.78h-54.77ZM731.7,516.45v54.77h54.78v-54.77h-54.78ZM950.79,406.9v54.77h54.78v-54.77h-54.78ZM731.7,406.9v54.77h54.78v-54.77h-54.78ZM841.25,625.99v54.78h54.77v-54.78h-54.77ZM841.25,406.9v54.77h54.77v-54.77h-54.77Z"/></g></svg>